<svg id="Capa_1" enable-background="new 0 0 512 512" height="512" viewBox="0 0 512 512" width="512" xmlns="http://www.w3.org/2000/svg"><g><path d="m512 256.124c-.067 142.268-114.967 256.544-257.234 255.873-34.179-.161-66.776-7.021-96.544-19.333-3.213-1.329-5.711-3.962-6.845-7.249-22.708-65.769-71.466-119.393-133.94-148.538-3.343-1.56-5.868-4.47-6.916-8.007-6.818-23.003-10.491-47.357-10.521-72.565-.164-140.983 114.843-256.211 255.826-256.305 141.506-.094 256.241 114.624 256.174 256.124z" fill="#3342ae"/><path d="m461.236 230c0 99.411-80.811 180-180.495 180s-180.495-80.589-180.495-180 80.81-180 180.494-180 180.496 80.589 180.496 180z" fill="#3d4ec6"/><path d="m459.898 188.943c0 2.747-.047 5.483-.139 8.208-4.025 118.672-182.119 118.672-186.144 0-.093-2.725-.139-5.461-.139-8.208 0-76.921 36.52-145.336 93.211-188.943 56.692 43.606 93.211 112.022 93.211 188.943z" fill="#40c1fa"/><path d="m459.898 188.943c0 2.747-.047 5.483-.139 8.208-.227 6.687-1.006 12.996-2.276 18.93-51.825 11.881-113.855-16.919-116.211-86.401-.092-2.725-.139-5.461-.139-8.208 0-42.626 11.215-82.64 30.863-117.268 53.652 43.731 87.902 110.246 87.902 184.739z" fill="#93dcfc"/><path d="m420.266 99.237c9.911 23.703 11.741 45.498 4.087 48.681-7.653 3.183-21.892-13.453-31.803-37.156s-11.741-45.498-4.087-48.681c7.653-3.182 21.892 13.453 31.803 37.156z" fill="#b4e7fd"/><path d="m179.592 126.431-14.282 7.79c-.282.154-.514.385-.668.666l-7.811 14.243c-.637 1.161-2.31 1.161-2.947 0l-7.811-14.243c-.154-.281-.386-.512-.667-.666l-14.282-7.79c-1.165-.635-1.165-2.303 0-2.938l14.282-7.79c.282-.154.513-.385.667-.666l7.811-14.243c.637-1.162 2.31-1.162 2.947 0l7.811 14.243c.154.281.386.512.668.666l14.282 7.79c1.164.634 1.164 2.303 0 2.938z" fill="#40c1fa"/><path d="m480.417 196.508-14.282 7.79c-.282.154-.514.385-.668.666l-7.811 14.243c-.637 1.162-2.31 1.162-2.947 0l-7.811-14.243c-.154-.281-.386-.512-.667-.666l-14.282-7.79c-1.165-.635-1.165-2.303 0-2.938l14.282-7.79c.282-.154.513-.385.667-.666l7.811-14.243c.637-1.161 2.31-1.161 2.947 0l7.811 14.243c.154.281.386.512.668.666l14.282 7.79c1.165.634 1.165 2.303 0 2.938z" fill="#fff5f5"/><path d="m219.132 432.954-60.158 60.019c-71.398-29.263-126.639-89.856-148.623-164.679l51.903-51.788c5.874-5.858 15.398-5.858 21.272 0l135.606 135.234c5.874 5.859 5.874 15.356 0 21.214z" fill="#ff72c3"/><path d="m119.956 312.837c-5.874-5.858-15.398-5.858-21.272 0l-36.502 36.43c-10.567 10.538-14.031 26.291-8.712 40.218 7.623 19.96 17.788 38.67 30.1 55.736-34.151-31.139-59.842-71.398-73.219-116.927l51.903-51.788c5.874-5.858 15.398-5.858 21.272 0z" fill="#ff50b5"/><path d="m122.105 338.145-.886.884c-11.503 11.472-30.154 11.472-41.657 0l-19.173-19.12c-11.503-11.472-11.503-30.071 0-41.542l.886-.884c11.503-11.472 30.154-11.472 41.657 0l19.173 19.12c11.503 11.471 11.503 30.07 0 41.542z" fill="#d12898"/><path d="m218.154 433.93-.886.884c-11.503 11.471-30.154 11.471-41.657 0l-15.508-15.465 6.779-13.145-76.915-76.704c-1.043-1.04-13.113 7.124-13.967 5.977-8.563-11.5-7.455-28.114 3.005-38.545l.886-.884c11.503-11.472 30.154-11.472 41.657 0l96.605 96.34c11.504 11.471 11.504 30.07.001 41.542z" fill="#ff2ea6"/><path d="m488.2 313.882-30.123 16.608c-22.593 12.456-47.985 18.99-73.801 18.99h-137.662c-10.668 0-20.892 4.235-28.416 11.776-19.875 19.921-58.098 58.09-58.098 58.09l-84.1-83.869s95.875-96.604 99.655-101.39c6.426-8.135 16.393-13.358 27.584-13.358h184.371c11.222 0 20.266 9.158 20.189 20.349-.076 11.122-3.794 21.381-10.023 29.651h39.902c9.003 0 17.988-.795 26.85-2.375l35.634-6.354c5.948-1.061 11.479 3.326 11.78 9.344.88 17.537-8.333 34.042-23.742 42.538z" fill="#ffbeaa"/><path d="m92.177 351.61-16.177-16.133s95.875-96.604 99.655-101.39c6.426-8.135 16.393-13.358 27.584-13.358l32.698.103c-12.717.865-23.942 7.147-31.372 16.552-3.791 4.799-81.947 83.579-112.388 114.226zm272.964-81.61h-144.2c-5.74 0-10.393 4.64-10.393 10.365 0 5.724 4.653 10.365 10.393 10.365h136.722c24.308 0 44.574-17.251 49.163-40.146-9.637 11.811-24.725 19.416-41.685 19.416z" fill="#faa68e"/><path d="m408.803 235.729v10c0 8.284-6.734 15-15.041 15h-15.042c-11.076 0-20.055-8.954-20.055-20s8.979-20 20.055-20h15.041c8.308 0 15.042 6.716 15.042 15z" fill="#ffdecf"/></g></svg>