<svg id="Capa_1" enable-background="new 0 0 512 512" height="512" viewBox="0 0 512 512" width="512" xmlns="http://www.w3.org/2000/svg"><g><path d="m56.306 416.197c-35.54-44.246-56.678-100.553-56.301-161.808.864-140.469 115.872-254.576 256.344-254.389 141.224.188 255.651 114.731 255.651 256 0 55.676-17.774 107.201-47.957 149.21-8.2 11.413-21.35 18.231-35.404 18.231h-357.311c-5.849 0-11.359-2.684-15.022-7.244z" fill="#65befc"/><path d="m495.32 250.143c0 32.552-14.932 61.617-38.32 80.718v71.51c0 9.036-7.325 16.361-16.361 16.361h-313.525c-9.036 0-16.361-7.325-16.361-16.361v-60.39c-32.72-17.564-54.969-52.103-54.969-91.838 0-41.4 24.152-77.158 59.135-93.955 12.783-44.167 53.527-76.46 101.813-76.46 25.483 0 48.865 8.995 67.145 23.981 18.28-14.986 41.662-23.981 67.145-23.981 52.595 0 96.242 38.313 104.553 88.553 24.205 19.074 39.745 48.653 39.745 81.862z" fill="#93d0fd"/><path d="m140.682 121.463c-23.358-10.253-39.673-33.587-39.673-60.731s16.314-50.478 39.673-60.731c23.358 10.252 23.358 111.209 0 121.462zm-104.162-19.792c-7.751 19.88-3.599 43.33 12.456 59.385s39.505 20.207 59.385 12.456c7.751-19.88-51.961-79.592-71.841-71.841zm208.323 0c-19.88-7.751-43.331-3.6-59.385 12.455s-20.207 39.505-12.455 59.385c19.879 7.752 79.591-51.96 71.84-71.84zm-208.323 88.718c-7.751 19.88-3.599 43.331 12.456 59.385 16.055 16.055 39.505 20.207 59.385 12.456 7.751-19.88-51.961-79.592-71.841-71.841zm148.938 12.456c-16.055 16.055-20.207 39.505-12.455 59.385 19.88 7.751 79.592-51.961 71.841-71.841-19.881-7.751-43.331-3.599-59.386 12.456zm-148.938 76.262c-7.751 19.88-3.599 43.33 12.456 59.385s39.505 20.207 59.385 12.456c7.751-19.88-51.961-79.592-71.841-71.841zm148.938 12.456c-16.055 16.055-20.207 39.505-12.455 59.385 19.88 7.751 79.592-51.961 71.841-71.841-19.881-7.751-43.331-3.599-59.386 12.456z" fill="#00a86d"/><path d="m180.354 60.731c0 27.145-16.314 50.478-39.673 60.731-23.358-10.253-23.358-111.21 0-121.463 23.359 10.254 39.673 33.588 39.673 60.732zm-143.834 40.94c-7.751 19.88 51.961 79.592 71.841 71.841 7.751-19.88 3.599-43.331-12.456-59.385-16.054-16.055-39.505-20.207-59.385-12.456zm136.482 71.841c19.88 7.751 43.33 3.599 59.385-12.456s20.207-39.505 12.456-59.385c-19.88-7.751-79.592 51.961-71.841 71.841zm-136.482 16.877c-7.751 19.88 51.961 79.592 71.841 71.841 7.751-19.88 3.599-43.33-12.456-59.385-16.054-16.055-39.505-20.207-59.385-12.456zm136.482 71.841c19.88 7.751 43.33 3.599 59.385-12.456s20.207-39.505 12.456-59.385c-19.88-7.751-79.592 51.961-71.841 71.841zm-136.482 16.877c-7.751 19.88 51.961 79.592 71.841 71.841 7.751-19.88 3.599-43.331-12.456-59.385-16.054-16.055-39.505-20.207-59.385-12.456zm136.482 71.841c19.88 7.751 43.33 3.599 59.385-12.456s20.207-39.505 12.456-59.385c-19.88-7.751-79.592 51.961-71.841 71.841z" fill="#4bcd5c"/><path d="m148.182 294.936v67.504l24.362-24.363c2.93-2.928 7.678-2.928 10.607 0 2.929 2.93 2.929 7.678 0 10.607l-34.97 34.97v32.288c0 4.143-3.357 7.5-7.5 7.5s-7.5-3.357-7.5-7.5v-32.288l-34.97-34.97c-2.929-2.93-2.929-7.678 0-10.607 2.93-2.928 7.678-2.928 10.607 0l24.362 24.363v-67.504l-34.97-34.97c-2.929-2.93-2.929-7.678 0-10.607 2.93-2.928 7.678-2.928 10.607 0l24.362 24.363v-67.504l-34.97-34.97c-2.929-2.93-2.929-7.678 0-10.607 2.93-2.928 7.678-2.928 10.607 0l24.362 24.363v-69.543c0-4.143 3.357-7.5 7.5-7.5s7.5 3.357 7.5 7.5v69.543l24.362-24.363c2.93-2.928 7.678-2.928 10.607 0 2.929 2.93 2.929 7.678 0 10.607l-34.97 34.97v67.504l24.362-24.363c2.93-2.928 7.678-2.928 10.607 0 2.929 2.93 2.929 7.678 0 10.607z" fill="#00915d"/><path d="m368.782 120c-16.905-16.193-23.619-41.443-15.072-64.84 8.548-23.397 29.958-38.372 53.32-39.855 16.906 16.193-14.886 103.213-38.248 104.695zm-29.784 53.512c-19.88 7.751-43.33 3.599-59.385-12.456s-20.207-39.505-12.456-59.385c19.88-7.751 79.592 51.961 71.841 71.841zm64.641 0c-7.751-19.88-3.599-43.33 12.456-59.385s39.505-20.207 59.385-12.456c7.751 19.88-51.961 79.592-71.841 71.841zm-61.877 87.645c-18.179 7.088-39.624 3.291-54.306-11.39s-18.478-36.126-11.39-54.305c18.18-7.088 72.785 47.516 65.696 65.695zm59.112 0c-7.088-18.179-3.291-39.624 11.39-54.306 14.682-14.682 36.126-18.478 54.305-11.39 7.089 18.18-47.515 72.785-65.695 65.696z" fill="#ff9500"/><path d="m422.102 80.145c-8.548 23.397-29.958 38.372-53.32 39.855-16.905-16.193 14.886-103.213 38.249-104.695 16.905 16.193 23.619 41.443 15.071 64.84zm-95.56 33.982c16.055 16.055 20.207 39.505 12.456 59.385-19.88 7.751-79.592-51.961-71.841-71.841 19.88-7.751 43.33-3.599 59.385 12.456zm136.482 46.93c-16.055 16.055-39.505 20.207-59.385 12.456-7.751-19.88 51.961-79.592 71.841-71.841 7.751 19.879 3.599 43.33-12.456 59.385zm-132.652 45.795c14.682 14.682 18.478 36.126 11.39 54.306-18.179 7.088-72.784-47.516-65.696-65.696 18.18-7.088 39.625-3.292 54.306 11.39zm124.808 42.915c-14.682 14.682-36.126 18.478-54.306 11.39-7.088-18.179 47.516-72.784 65.696-65.696 7.088 18.18 3.292 39.625-11.39 54.306z" fill="#ffb509"/><path d="m378.818 295.43v26.667l34.657 34.657c2.907 2.908 2.907 7.621 0 10.529-1.454 1.453-3.36 2.18-5.265 2.18s-3.811-.727-5.265-2.18l-24.127-24.128v72.787c0 4.143-3.357 7.5-7.5 7.5s-7.5-3.357-7.5-7.5v-72.787l-24.127 24.128c-2.908 2.906-7.621 2.906-10.529 0-2.907-2.908-2.907-7.621 0-10.529l34.657-34.657v-26.667l-34.657-34.657c-2.907-2.908-2.907-7.621 0-10.529 2.908-2.906 7.621-2.906 10.529 0l24.127 24.128v-67.006l-34.657-34.657c-2.907-2.908-2.907-7.621 0-10.529 2.908-2.906 7.621-2.906 10.529 0l24.127 24.128v-70.847c0-4.143 3.357-7.5 7.5-7.5s7.5 3.357 7.5 7.5v70.847l24.127-24.128c2.908-2.906 7.621-2.906 10.529 0 2.907 2.908 2.907 7.621 0 10.529l-34.657 34.657v67.006l24.127-24.128c2.908-2.906 7.621-2.906 10.529 0 2.907 2.908 2.907 7.621 0 10.529zm11.182-225.43c-5.523 0-10 4.477-10 10s4.477 10 10 10 10-4.477 10-10-4.477-10-10-10zm17.5-30c-4.142 0-7.5 3.358-7.5 7.5s3.358 7.5 7.5 7.5 7.5-3.358 7.5-7.5-3.358-7.5-7.5-7.5zm52.5 330c0 5.523-4.477 10-10 10s-10-4.477-10-10 4.477-10 10-10 10 4.477 10 10zm-32.5-50c-4.142 0-7.5 3.358-7.5 7.5s3.358 7.5 7.5 7.5 7.5-3.358 7.5-7.5-3.358-7.5-7.5-7.5z" fill="#ff7117"/><path d="m464.177 405.024c-41.26 57.535-105.779 97.26-179.806 105.422-6.668.735-36.113-7.871-38.838-7.871-58.069 0-116.616-46.087-141.032-74.058-9.664-11.072.395-25.065 6.191-26.41 19.905-4.618 41.023-2.721 59.933 5.691 11.205 4.985 23.613 7.755 36.668 7.755s25.463-2.77 36.668-7.755c24.416-10.862 52.511-10.862 76.927 0 11.205 4.985 23.613 7.755 36.668 7.755s25.463-2.77 36.668-7.755c22.121-9.842 47.264-10.767 69.953-2.774z" fill="#ca6d36"/><path d="m288.553 509.95c-10.66 1.352-21.525 2.05-32.553 2.05-81.054 0-153.309-37.669-200.216-96.456.414.005.829.008 1.245.008 13.055 0 25.463-2.77 36.668-7.755 5.505-2.449 11.196-4.345 16.991-5.69.052-.012 96.687 100.808 177.865 107.843zm1.606-16.666c4.142 0 7.5-3.358 7.5-7.5s-3.358-7.5-7.5-7.5-7.5 3.358-7.5 7.5 3.358 7.5 7.5 7.5zm25.263-29.564c4.142 0 7.5-3.358 7.5-7.5s-3.358-7.5-7.5-7.5-7.5 3.358-7.5 7.5 3.358 7.5 7.5 7.5zm-62.389-26.6c4.142 0 7.5-3.358 7.5-7.5s-3.358-7.5-7.5-7.5-7.5 3.358-7.5 7.5 3.358 7.5 7.5 7.5z" fill="#ad5e2e"/><path d="m279.981 35.305c0 5.523-4.477 10-10 10s-10-4.477-10-10 4.477-10 10-10 10 4.477 10 10zm-253.301 230.396c0 5.523-4.477 10-10 10s-10-4.477-10-10 4.477-10 10-10 10 4.477 10 10zm253.301 40.279c-4.142 0-7.5 3.358-7.5 7.5s3.358 7.5 7.5 7.5 7.5-3.358 7.5-7.5-3.358-7.5-7.5-7.5z" fill="#172a7d"/></g></svg>