<svg id="Capa_1" enable-background="new 0 0 512 512" height="512" viewBox="0 0 512 512" width="512" xmlns="http://www.w3.org/2000/svg"><g><path d="m44.568 368.858c-21.335-36.341-33.568-78.671-33.568-123.858 0-135.31 109.69-245 245-245s245 109.69 245 245c0 45.187-12.233 87.517-33.568 123.858-2.974 5.066-14.923 7.118-17.823 3.384-44.823-57.71-114.879-94.846-193.609-94.846-79.76 0-150.617 38.113-195.354 97.121-2.28 3.007-13.104-.593-16.078-5.659z" fill="#00d1fc"/><path d="m304.92 315.386c-15.808 3.203-32.167 4.885-48.92 4.885-35.62 0-69.465-7.602-100-21.271v-250l47.456 16.252c11.979 4.102 24.379 6.782 36.947 7.996 4.462.431 13.437 29.837 13.437 29.837v195.915c16.175 7.24 33.277 12.778 51.08 16.386zm-180.67-251.748h-70c9.429 55.901 10.982 112.846 4.614 169.178l-4.614 40.822h70z" fill="#00429c"/><path d="m457.75 63.638c-9.429 55.901-10.982 112.846-4.615 169.177l4.615 40.822h-70v-210zm-201.75 10.362c-5.215 0-10.42-.252-15.597-.752-5.845 14.438-9.064 30.219-9.064 46.752 0 68.848 55.812 124.661 124.661 124.661v-195.661l-47.457 16.252c-16.912 5.792-34.666 8.748-52.543 8.748z" fill="#0055ca"/><path d="m89.495 415.294c-2.673-2.477-31.609-33.404-39.83-46.213v-108.081c0-7.021 3.626-13.62 9.701-17.14 21.345-12.37 36.634-45.693 36.634-84.86s-15.289-72.49-36.634-84.86c-6.075-3.52-9.701-10.119-9.701-17.14v-8c0-11.046 8.954-20 20-20h39.83c-11.046 0-20 8.954-20 20v8c0 7.021 3.626 13.62 9.701 17.14 21.344 12.37 36.634 45.693 36.634 84.86s-15.29 72.49-36.635 84.86c-6.074 3.521-9.701 10.119-9.701 17.14v154.294zm222.31 57.323c-2.61.608-5.237 1.175-7.879 1.698-1.323.262-2.65 11.512-3.981 11.753-9.498 1.72-19.186 2.893-29.031 3.484-.468.028-.936-5.132-1.405-5.106-1.699.092-3.403.167-5.111.225-1.321-2.67-2.064-5.678-2.064-8.858v-279.688c0-9.022 6.366-16.735 15.193-18.606.046-.01.092-.02.137-.03 29.169-6.403 51-32.396 51-63.488v-65.001c0-11.046 8.954-20 20-20h49.47c-11.045 0-20 8.954-20 20v65c0 31.092-21.831 80.309-51 86.712-.045.01-.091.02-.137.03-8.826 1.871-15.193 9.584-15.193 18.606v253.269z" fill="#ff4343"/><path d="m100.303 29h63.032c11.046 0 20 8.954 20 20v65c0 26.654 16.043 49.561 39 59.591 2.788 1.218 6.919 2.245 11.131 3.066 9.382 1.829 16.199 9.969 16.199 19.527v275.794c0 3.181-.743 6.188-2.064 8.858-1.454-.049-2.904-.111-4.351-.185-.723-.037-1.444 8.944-2.165 8.901-62.275-3.74-118.279-30.742-159.44-72.433-.449-.455-1.342-6.801-1.342-6.801v-149.318c0-7.021 3.626-13.62 9.701-17.14 21.345-12.37 36.634-45.693 36.634-84.86s-15.289-72.49-36.634-84.86c-6.075-3.52-9.701-10.119-9.701-17.14v-8c0-11.046 8.954-20 20-20zm265.972 20v65c0 31.092-21.831 80.309-51 86.712-.045.01-.091.02-.137.03-8.826 1.871-15.193 9.584-15.193 18.606v266.721c50.516-9.148 95.639-33.785 130.276-68.814 1.217-1.23 2.42-7.354 3.611-8.61 10.595-11.177 20.148-23.352 28.503-36.369v-111.276c0-7.021-3.626-13.62-9.701-17.14-21.345-12.37-36.634-45.693-36.634-84.86s15.289-72.49 36.634-84.86c6.075-3.521 9.701-10.119 9.701-17.14v-8c0-11.046-8.954-20-20-20h-56.06c-11.045 0-20 8.954-20 20z" fill="#ff5757"/><path d="m270.915 181.319v308.234c-4.934.297-9.907.447-14.915.447s-9.981-.15-14.915-.447v-308.234c0-5.523 4.477-10 10-10h9.83c5.523 0 10 4.477 10 10z" fill="#ff7a7a"/><path d="m343.84 235h-36.88c-5.523 0-10-4.477-10-10v-20.476c0-5.523 4.477-10 10-10h36.88c5.523 0 10 4.477 10 10v20.476c0 5.523-4.477 10-10 10z" fill="#ff7a7a"/><path d="m389.945 235h-53.061c-5.523 0-10-4.477-10-10v-20.476c0-5.523 4.477-10 10-10h53.061c5.523 0 10 4.477 10 10v20.476c0 5.523-4.477 10-10 10z" fill="#ff9a9a"/><path d="m246 329h-26c-5.523 0-10-4.477-10-10v-50c0-5.523 4.477-10 10-10h26c5.523 0 10 4.477 10 10v50c0 5.523-4.477 10-10 10z" fill="#ffef31"/><path d="m90 377.255v30c0 4.962-3.615 9.08-8.355 9.865-14.259-14.443-26.737-30.649-37.077-48.261 1.564-1.014 3.429-1.603 5.432-1.603h30c5.523-.001 10 4.476 10 9.999z" fill="#ffb509"/><path d="m246 427.255h-26c-5.523 0-10-4.477-10-10v-50c0-5.523 4.477-10 10-10h26c5.523 0 10 4.477 10 10v50c0 5.523-4.477 10-10 10z" fill="#ffef31"/><path d="m68.319 402.492v-25.236c0-5.523 4.477-10 10-10h383.681c2.003 0 3.868.589 5.432 1.603-10.372 17.667-22.896 33.92-37.21 48.397h-348.443c-4.683-4.736-9.173-9.662-13.46-14.764z" fill="#ffc143"/><path d="m393 308v126c0 4.971-4.029 9-9 9s-9-4.029-9-9v-126c0-4.971 4.029-9 9-9s9 4.029 9 9z" fill="#ff9500"/><path d="m406.441 446.449-8.813 65.551h-23.172l-8.812-65.551c-.526-3.91 2.515-7.386 6.46-7.386h27.877c3.945 0 6.985 3.477 6.46 7.386z" fill="#ffef31"/><path d="m380.17 417.34c14.542 0 26.33 11.788 26.33 26.33s-11.788 26.33-26.33 26.33-26.33-11.788-26.33-26.33c0-14.541 11.789-26.33 26.33-26.33z" fill="#fff261"/><path d="m380.17 430.67c7.18 0 13 5.82 13 13s-5.82 13-13 13-13-5.82-13-13c0-7.179 5.821-13 13-13z" fill="#ffef31"/><path d="m80 319h-30c-5.523 0-10-4.477-10-10v-30c0-5.523 4.477-10 10-10h30c5.523 0 10 4.477 10 10v30c0 5.523-4.477 10-10 10z" fill="#ffb509"/><path d="m462 319h-383.681c-5.523 0-10-4.477-10-10v-30c0-5.523 4.477-10 10-10h383.681c5.523 0 10 4.477 10 10v30c0 5.523-4.477 10-10 10z" fill="#ffc143"/><path d="m292 427.255h-50c-5.523 0-10-4.477-10-10v-50c0-5.523 4.477-10 10-10h50c5.523 0 10 4.477 10 10v50c0 5.523-4.477 10-10 10zm0-98.255h-50c-5.523 0-10-4.477-10-10v-50c0-5.523 4.477-10 10-10h50c5.523 0 10 4.477 10 10v50c0 5.523-4.477 10-10 10z" fill="#fff261"/></g></svg>